<svg width="48" height="48" viewBox="0 0 48 48" fill="none" xmlns="http://www.w3.org/2000/svg">
<path d="M44 30C44 37.74 37.74 44 30 44L32.1 40.5M4 18C4 10.26 10.26 4 18 4L15.9 7.5M27.4 8.9L35.36 13.5L43.24 8.92M35.36 21.64V13.48" stroke="black" stroke-width="3" stroke-linecap="round" stroke-linejoin="round"/>
<path d="M4.7002 30.9L12.6402 35.5L20.5402 30.92M12.6402 43.64V35.48M33.4802 4.42L28.6802 7.08C27.6002 7.68 26.7002 9.2 26.7002 10.44V15.52C26.7002 16.76 27.5802 18.28 28.6802 18.88L33.4802 21.54C34.5002 22.12 36.1802 22.12 37.2202 21.54L42.0202 18.88C43.1002 18.28 44.0002 16.76 44.0002 15.52V10.44C44.0002 9.2 43.1202 7.68 42.0202 7.08L37.2202 4.42C36.2002 3.86 34.5202 3.86 33.4802 4.42Z" stroke="black" stroke-width="3" stroke-linecap="round" stroke-linejoin="round"/>
<path d="M10.78 26.42L5.98 29.08C4.9 29.68 4 31.2 4 32.44V37.52C4 38.76 4.88 40.28 5.98 40.88L10.78 43.54C11.8 44.12 13.48 44.12 14.52 43.54L19.32 40.88C20.4 40.28 21.3 38.76 21.3 37.52V32.44C21.3 31.2 20.42 29.68 19.32 29.08L14.52 26.42C13.48 25.86 11.8 25.86 10.78 26.42Z" stroke="black" stroke-width="3" stroke-linecap="round" stroke-linejoin="round"/>
</svg>
