<svg width="48" height="48" viewBox="0 0 48 48" fill="none" xmlns="http://www.w3.org/2000/svg">
<path d="M32.8199 7.99998C36.6999 7.99998 39.8199 11.14 39.8199 15C39.8199 18.78 36.8199 21.86 33.0799 22C32.9072 21.98 32.7327 21.98 32.5599 22M36.6799 40C38.1199 39.7 39.4799 39.12 40.5999 38.26C43.7199 35.92 43.7199 32.06 40.5999 29.72C39.4999 28.88 38.1599 28.32 36.7399 28M18.3199 21.74C18.1199 21.72 17.8799 21.72 17.6599 21.74C15.3643 21.662 13.1892 20.6937 11.5952 19.0399C10.0012 17.3861 9.11342 15.1769 9.11994 12.88C9.11994 7.97998 13.0799 3.99998 17.9999 3.99998C20.3524 3.95755 22.6254 4.85136 24.3188 6.48481C26.0123 8.11825 26.9875 10.3575 27.0299 12.71C27.0724 15.0625 26.1786 17.3354 24.5451 19.0289C22.9117 20.7223 20.6724 21.6975 18.3199 21.74ZM8.31994 29.12C3.47994 32.36 3.47994 37.64 8.31994 40.86C13.8199 44.54 22.8399 44.54 28.3399 40.86C33.1799 37.62 33.1799 32.34 28.3399 29.12C22.8599 25.46 13.8399 25.46 8.31994 29.12Z" stroke="black" stroke-width="3" stroke-linecap="round" stroke-linejoin="round"/>
</svg>
